User Type,Username,Date,Text
,acayouche,2013-01-23T18:09Z,"Here's The Tech Info Of One Of The Episode Of This 2nd Pack:

Complete name                            : Swiss Family Robinson (1976) (PACK 2 OF 2)/EP14 Nature's Child.avi
Format                                   : AVI
Format/Info                              : Audio Video Interleave
File size                                : 173 MiB
Duration                                 : 23mn 37s
Overall bit rate                         : 1 026 Kbps
Writing application                      : FairUse Wizard - http://fairusewizard.com
Writing library                          : The best and REALLY easy backup tool

Video
ID                                       : 0
Format                                   : MPEG-4 Visual
Format profile                           : Advanced Simple@L5
Format settings, BVOP                    : 1
Format settings, QPel                    : No
Format settings, GMC                     : No warppoints
Format settings, Matrix                  : Default (MPEG)
Muxing mode                              : Packed bitstream
Codec ID                                 : XVID
Codec ID/Hint                            : XviD
Duration                                 : 23mn 37s
Bit rate                                 : 889 Kbps
Width                                    : 576 pixels
Height                                   : 432 pixels
Display aspect ratio                     : 4:3
Frame rate                               : 23.976 fps
Color space                              : YUV
Chroma subsampling                       : 4:2:0
Bit depth                                : 8 bits
Scan type                                : Progressive
Compression mode                         : Lossy
Bits/(Pixel*Frame)                       : 0.149
Stream size                              : 150 MiB (87%)
Writing library                          : XviD 1.2.0.dev47 (UTC 2006-11-01)

Audio
ID                                       : 1
Format                                   : MPEG Audio
Format version                           : Version 1
Format profile                           : Layer 3
Mode                                     : Joint stereo
Mode extension                           : MS Stereo
Codec ID                                 : 55
Codec ID/Hint                            : MP3
Duration                                 : 23mn 37s
Bit rate mode                            : Constant
Bit rate                                 : 128 Kbps
Channel(s)                               : 2 channels
Sampling rate                            : 48.0 KHz
Compression mode                         : Lossy
Stream size                              : 21.6 MiB (12%)
Alignment                                : Aligned on interleaves
Interleave, duration                     : 42 ms (1.00 video frame)
Interleave, preload duration             : 504 ms
Writing library                          : LAME3.97 
Encoding settings                        : -m j -V 4 -q 2 -lowpass 17 -b 128
"
,acayouche,2013-01-27T13:57Z,"STAY IN SEED AFTER COMPLETION, THANK YOU"
,Gandalf-the-whatever,2013-02-08T16:09Z,Seed please people. This series is great. I will definitely seed for others.
,DjEj1201,2013-04-21T09:49Z,I will seed when its done downloading
